<!-- EAGLES GON EAT — generated by tools/export-scenes.js -->
<svg xmlns="http://www.w3.org/2000/svg" viewBox="0 0 1600 1000" width="1600" height="1000" preserveAspectRatio="xMidYMax slice" aria-hidden="true"><circle cx="1180" cy="470" r="150" fill="#FFE28A" stroke="#17110D" stroke-width="6"/><path d="M -40 1010 C -40 1010 -46.7 637.1 -40 563.1 C -33.3 489.1 -13.3 566.1 0 566 C 13.3 566 26.7 565 40 562.8 C 53.3 560.5 66.7 557 80 552.7 C 93.3 548.4 106.7 542.8 120 537 C 133.3 531.2 146.7 524.3 160 517.9 C 173.3 511.5 186.7 504.5 200 498.6 C 213.3 492.7 226.7 486.9 240 482.5 C 253.3 478.1 266.7 474.4 280 472.3 C 293.3 470.2 306.7 469.3 320 469.8 C 333.3 470.2 346.7 472.2 360 475 C 373.3 477.8 386.7 482.2 400 486.7 C 413.3 491.3 426.7 497 440 502.3 C 453.3 507.6 466.7 513.6 480 518.6 C 493.3 523.6 506.7 528.6 520 532.4 C 533.3 536.2 546.7 539.4 560 541.3 C 573.3 543.2 586.7 544 600 543.9 C 613.3 543.9 626.7 542.5 640 540.7 C 653.3 538.9 666.7 536 680 533.3 C 693.3 530.5 706.7 527 720 524.3 C 733.3 521.6 746.7 518.7 760 516.9 C 773.3 515.2 786.7 513.9 800 514 C 813.3 514 826.7 515 840 517.2 C 853.3 519.5 866.7 523 880 527.3 C 893.3 531.6 906.7 537.2 920 543 C 933.3 548.8 946.7 555.7 960 562.1 C 973.3 568.5 986.7 575.5 1000 581.4 C 1013.3 587.3 1026.7 593.1 1040 597.5 C 1053.3 601.9 1066.7 605.6 1080 607.7 C 1093.3 609.8 1106.7 610.7 1120 610.2 C 1133.3 609.8 1146.7 607.8 1160 605 C 1173.3 602.2 1186.7 597.8 1200 593.3 C 1213.3 588.7 1226.7 583 1240 577.7 C 1253.3 572.4 1266.7 566.4 1280 561.4 C 1293.3 556.4 1306.7 551.4 1320 547.6 C 1333.3 543.8 1346.7 540.6 1360 538.7 C 1373.3 536.8 1386.7 536 1400 536.1 C 1413.3 536.1 1426.7 537.5 1440 539.3 C 1453.3 541.1 1466.7 544 1480 546.7 C 1493.3 549.5 1506.7 553 1520 555.7 C 1533.3 558.4 1546.7 561.3 1560 563.1 C 1573.3 564.8 1586.7 566.1 1600 566 C 1613.3 566 1633.3 488.8 1640 562.8 C 1646.7 636.8 1640 1010 1640 1010 C 1640 1010 -40 1010 -40 1010 Z" fill="#C9701A" stroke="#17110D" stroke-width="6" stroke-linejoin="round"/><path d="M -40 1010 C -40 1010 -46.7 646.7 -40 573.3 C -33.3 499.8 -13.3 570.4 0 569.4 C 13.3 568.3 26.7 567.5 40 566.9 C 53.3 566.4 66.7 566.1 80 566.1 C 93.3 566.1 106.7 566.4 120 567 C 133.3 567.6 146.7 568.4 160 569.5 C 173.3 570.6 186.7 572 200 573.6 C 213.3 575.1 226.7 577 240 578.8 C 253.3 580.7 266.7 582.8 280 585 C 293.3 587.1 306.7 589.3 320 591.5 C 333.3 593.7 346.7 595.9 360 598 C 373.3 600.2 386.7 602.3 400 604.2 C 413.3 606.1 426.7 607.9 440 609.5 C 453.3 611.1 466.7 612.6 480 613.8 C 493.3 615 506.7 616.1 520 616.9 C 533.3 617.7 546.7 618.3 560 618.7 C 573.3 619.1 586.7 619.3 600 619.3 C 613.3 619.3 626.7 619.2 640 618.9 C 653.3 618.6 666.7 618.1 680 617.6 C 693.3 617.2 706.7 616.5 720 615.9 C 733.3 615.3 746.7 614.6 760 614 C 773.3 613.4 786.7 612.8 800 612.2 C 813.3 611.7 826.7 611.2 840 610.8 C 853.3 610.4 866.7 610.1 880 610 C 893.3 609.8 906.7 609.7 920 609.7 C 933.3 609.7 946.7 609.9 960 610.1 C 973.3 610.3 986.7 610.6 1000 611 C 1013.3 611.3 1026.7 611.8 1040 612.2 C 1053.3 612.6 1066.7 613 1080 613.4 C 1093.3 613.7 1106.7 614.1 1120 614.3 C 1133.3 614.5 1146.7 614.7 1160 614.7 C 1173.3 614.7 1186.7 614.5 1200 614.2 C 1213.3 613.9 1226.7 613.4 1240 612.7 C 1253.3 612.1 1266.7 611.2 1280 610.1 C 1293.3 609.1 1306.7 607.8 1320 606.4 C 1333.3 605 1346.7 603.4 1360 601.7 C 1373.3 599.9 1386.7 598 1400 596.1 C 1413.3 594.2 1426.7 592.1 1440 590.1 C 1453.3 588.1 1466.7 586 1480 584 C 1493.3 582.1 1506.7 580.1 1520 578.3 C 1533.3 576.5 1546.7 574.8 1560 573.3 C 1573.3 571.8 1586.7 570.4 1600 569.4 C 1613.3 568.3 1633.3 493.5 1640 566.9 C 1646.7 640.4 1640 1010 1640 1010 C 1640 1010 -40 1010 -40 1010 Z" fill="#A9571C" stroke="#17110D" stroke-width="6" stroke-linejoin="round"/><path d="M 48.7 627.5 L 48.9 551.4 M 48.8 600.8 L 21.7 571.3 M 48.8 588.7 L 69.7 561.8 M 48.9 576.5 L 24.9 555.2 M 48.9 564.3 L 72.8 536.5" fill="none" stroke="#17110D" stroke-width="15.33933115156833" stroke-linecap="round" stroke-linejoin="round"/><path d="M 48.7 627.5 L 48.9 551.4 M 48.8 600.8 L 21.7 571.3 M 48.8 588.7 L 69.7 561.8 M 48.9 576.5 L 24.9 555.2 M 48.9 564.3 L 72.8 536.5" fill="none" stroke="#4A3423" stroke-width="6.339331151568331" stroke-linecap="round" stroke-linejoin="round"/><ellipse cx="40.6" cy="584.3" rx="5.7" ry="8.2" fill="#5A3A24" stroke="#17110D" stroke-width="2"/><circle cx="41.9" cy="575.4" r="4.3" fill="#6B4128" stroke="#17110D" stroke-width="1.8"/><ellipse cx="31.7" cy="574.6" rx="5.7" ry="8.2" fill="#5A3A24" stroke="#17110D" stroke-width="2"/><circle cx="33" cy="565.7" r="4.3" fill="#FFF6E4" stroke="#17110D" stroke-width="1.8"/><ellipse cx="24" cy="566.2" rx="5.7" ry="8.2" fill="#5A3A24" stroke="#17110D" stroke-width="2"/><circle cx="25.3" cy="557.3" r="4.3" fill="#6B4128" stroke="#17110D" stroke-width="1.8"/><ellipse cx="54.8" cy="573.4" rx="5.7" ry="8.2" fill="#5A3A24" stroke="#17110D" stroke-width="2"/><circle cx="56" cy="564.6" r="4.3" fill="#6B4128" stroke="#17110D" stroke-width="1.8"/><ellipse cx="61.8" cy="564.4" rx="5.7" ry="8.2" fill="#5A3A24" stroke="#17110D" stroke-width="2"/><circle cx="63.1" cy="555.5" r="4.3" fill="#6B4128" stroke="#17110D" stroke-width="1.8"/><ellipse cx="68.2" cy="556.2" rx="5.7" ry="8.2" fill="#5A3A24" stroke="#17110D" stroke-width="2"/><circle cx="69.5" cy="547.3" r="4.3" fill="#6B4128" stroke="#17110D" stroke-width="1.8"/><ellipse cx="41.7" cy="562.5" rx="5.7" ry="8.2" fill="#5A3A24" stroke="#17110D" stroke-width="2"/><circle cx="43" cy="553.6" r="4.3" fill="#FFF6E4" stroke="#17110D" stroke-width="1.8"/><ellipse cx="34.5" cy="556.2" rx="5.7" ry="8.2" fill="#5A3A24" stroke="#17110D" stroke-width="2"/><circle cx="35.8" cy="547.3" r="4.3" fill="#6B4128" stroke="#17110D" stroke-width="1.8"/><ellipse cx="27.1" cy="549.6" rx="5.7" ry="8.2" fill="#5A3A24" stroke="#17110D" stroke-width="2"/><circle cx="28.4" cy="540.7" r="4.3" fill="#FFF6E4" stroke="#17110D" stroke-width="1.8"/><ellipse cx="56" cy="548.4" rx="5.7" ry="8.2" fill="#5A3A24" stroke="#17110D" stroke-width="2"/><circle cx="57.3" cy="539.5" r="4.3" fill="#FFF6E4" stroke="#17110D" stroke-width="1.8"/><ellipse cx="63" cy="540.3" rx="5.7" ry="8.2" fill="#5A3A24" stroke="#17110D" stroke-width="2"/><circle cx="64.3" cy="531.4" r="4.3" fill="#6B4128" stroke="#17110D" stroke-width="1.8"/><ellipse cx="71.1" cy="530.9" rx="5.7" ry="8.2" fill="#5A3A24" stroke="#17110D" stroke-width="2"/><circle cx="72.3" cy="522" r="4.3" fill="#FFF6E4" stroke="#17110D" stroke-width="1.8"/><path d="M 170.1 628.3 L 169 559.3 M 169.8 604.2 L 151.9 583.2 M 169.6 593.1 L 197.7 565.2 M 169.4 582.1 L 145.2 567.3 M 169.2 571 L 197.6 548.9" fill="none" stroke="#17110D" stroke-width="14.748479865607806" stroke-linecap="round" stroke-linejoin="round"/><path d="M 170.1 628.3 L 169 559.3 M 169.8 604.2 L 151.9 583.2 M 169.6 593.1 L 197.7 565.2 M 169.4 582.1 L 145.2 567.3 M 169.2 571 L 197.6 548.9" fill="none" stroke="#4A3423" stroke-width="5.7484798656078056" stroke-linecap="round" stroke-linejoin="round"/><ellipse cx="164.7" cy="591.3" rx="5.2" ry="7.5" fill="#5A3A24" stroke="#17110D" stroke-width="1.8"/><circle cx="165.8" cy="583.3" r="3.9" fill="#FFF6E4" stroke="#17110D" stroke-width="1.6"/><ellipse cx="159.2" cy="584.8" rx="5.2" ry="7.5" fill="#5A3A24" stroke="#17110D" stroke-width="1.8"/><circle cx="160.3" cy="576.7" r="3.9" fill="#6B4128" stroke="#17110D" stroke-width="1.6"/><ellipse cx="153" cy="577.6" rx="5.2" ry="7.5" fill="#5A3A24" stroke="#17110D" stroke-width="1.8"/><circle cx="154.2" cy="569.5" r="3.9" fill="#6B4128" stroke="#17110D" stroke-width="1.6"/><ellipse cx="176.8" cy="579.1" rx="5.2" ry="7.5" fill="#5A3A24" stroke="#17110D" stroke-width="1.8"/><circle cx="177.9" cy="571" r="3.9" fill="#6B4128" stroke="#17110D" stroke-width="1.6"/><ellipse cx="186.5" cy="569.4" rx="5.2" ry="7.5" fill="#5A3A24" stroke="#17110D" stroke-width="1.8"/><circle cx="187.7" cy="561.4" r="3.9" fill="#6B4128" stroke="#17110D" stroke-width="1.6"/><ellipse cx="194.5" cy="561.5" rx="5.2" ry="7.5" fill="#5A3A24" stroke="#17110D" stroke-width="1.8"/><circle cx="195.7" cy="553.4" r="3.9" fill="#FFF6E4" stroke="#17110D" stroke-width="1.6"/><ellipse cx="161.3" cy="570.2" rx="5.2" ry="7.5" fill="#5A3A24" stroke="#17110D" stroke-width="1.8"/><circle cx="162.4" cy="562.2" r="3.9" fill="#6B4128" stroke="#17110D" stroke-width="1.6"/><ellipse cx="154.1" cy="565.9" rx="5.2" ry="7.5" fill="#5A3A24" stroke="#17110D" stroke-width="1.8"/><circle cx="155.3" cy="557.8" r="3.9" fill="#6B4128" stroke="#17110D" stroke-width="1.6"/><ellipse cx="147.7" cy="561.9" rx="5.2" ry="7.5" fill="#5A3A24" stroke="#17110D" stroke-width="1.8"/><circle cx="148.8" cy="553.9" r="3.9" fill="#6B4128" stroke="#17110D" stroke-width="1.6"/><ellipse cx="177.5" cy="557.7" rx="5.2" ry="7.5" fill="#5A3A24" stroke="#17110D" stroke-width="1.8"/><circle cx="178.7" cy="549.6" r="3.9" fill="#6B4128" stroke="#17110D" stroke-width="1.6"/><ellipse cx="185.5" cy="551.4" rx="5.2" ry="7.5" fill="#5A3A24" stroke="#17110D" stroke-width="1.8"/><circle cx="186.7" cy="543.4" r="3.9" fill="#6B4128" stroke="#17110D" stroke-width="1.6"/><ellipse cx="195" cy="544.1" rx="5.2" ry="7.5" fill="#5A3A24" stroke="#17110D" stroke-width="1.8"/><circle cx="196.1" cy="536.1" r="3.9" fill="#6B4128" stroke="#17110D" stroke-width="1.6"/><path d="M 247.1 627 L 247.2 570.4 M 247.1 607.2 L 224.6 591.4 M 247.1 598.1 L 262.1 586.1 M 247.2 589.1 L 232.3 567 M 247.2 580 L 260.4 555.5" fill="none" stroke="#17110D" stroke-width="13.71775270870421" stroke-linecap="round" stroke-linejoin="round"/><path d="M 247.1 627 L 247.2 570.4 M 247.1 607.2 L 224.6 591.4 M 247.1 598.1 L 262.1 586.1 M 247.2 589.1 L 232.3 567 M 247.2 580 L 260.4 555.5" fill="none" stroke="#4A3423" stroke-width="4.717752708704211" stroke-linecap="round" stroke-linejoin="round"/><ellipse cx="240.3" cy="596.7" rx="4.2" ry="6.1" fill="#5A3A24" stroke="#17110D" stroke-width="1.5"/><circle cx="241.3" cy="590.1" r="3.2" fill="#6B4128" stroke="#17110D" stroke-width="1.3"/><ellipse cx="234" cy="592.3" rx="4.2" ry="6.1" fill="#5A3A24" stroke="#17110D" stroke-width="1.5"/><circle cx="234.9" cy="585.7" r="3.2" fill="#FFF6E4" stroke="#17110D" stroke-width="1.3"/><ellipse cx="227.9" cy="588" rx="4.2" ry="6.1" fill="#5A3A24" stroke="#17110D" stroke-width="1.5"/><circle cx="228.8" cy="581.4" r="3.2" fill="#FFF6E4" stroke="#17110D" stroke-width="1.3"/><ellipse cx="252.1" cy="588.5" rx="4.2" ry="6.1" fill="#5A3A24" stroke="#17110D" stroke-width="1.5"/><circle cx="253" cy="581.9" r="3.2" fill="#FFF6E4" stroke="#17110D" stroke-width="1.3"/><ellipse cx="256.9" cy="584.6" rx="4.2" ry="6.1" fill="#5A3A24" stroke="#17110D" stroke-width="1.5"/><circle cx="257.8" cy="578" r="3.2" fill="#FFF6E4" stroke="#17110D" stroke-width="1.3"/><ellipse cx="260.7" cy="581.5" rx="4.2" ry="6.1" fill="#5A3A24" stroke="#17110D" stroke-width="1.5"/><circle cx="261.7" cy="574.9" r="3.2" fill="#6B4128" stroke="#17110D" stroke-width="1.3"/><ellipse cx="242" cy="575.8" rx="4.2" ry="6.1" fill="#5A3A24" stroke="#17110D" stroke-width="1.5"/><circle cx="243" cy="569.2" r="3.2" fill="#FFF6E4" stroke="#17110D" stroke-width="1.3"/><ellipse cx="238.5" cy="570.5" rx="4.2" ry="6.1" fill="#5A3A24" stroke="#17110D" stroke-width="1.5"/><circle cx="239.4" cy="563.9" r="3.2" fill="#6B4128" stroke="#17110D" stroke-width="1.3"/><ellipse cx="234.3" cy="564.3" rx="4.2" ry="6.1" fill="#5A3A24" stroke="#17110D" stroke-width="1.5"/><circle cx="235.2" cy="557.7" r="3.2" fill="#FFF6E4" stroke="#17110D" stroke-width="1.3"/><ellipse cx="251.4" cy="566.5" rx="4.2" ry="6.1" fill="#5A3A24" stroke="#17110D" stroke-width="1.5"/><circle cx="252.3" cy="559.9" r="3.2" fill="#FFF6E4" stroke="#17110D" stroke-width="1.3"/><ellipse cx="255.2" cy="559.5" rx="4.2" ry="6.1" fill="#5A3A24" stroke="#17110D" stroke-width="1.5"/><circle cx="256.2" cy="552.9" r="3.2" fill="#6B4128" stroke="#17110D" stroke-width="1.3"/><ellipse cx="259.5" cy="551.6" rx="4.2" ry="6.1" fill="#5A3A24" stroke="#17110D" stroke-width="1.5"/><circle cx="260.4" cy="544.9" r="3.2" fill="#FFF6E4" stroke="#17110D" stroke-width="1.3"/><path d="M 355.5 633.6 L 353.1 575.5 M 354.7 613.3 L 331.3 593.5 M 354.3 604 L 368.3 578.9 M 353.9 594.7 L 335.5 571.4 M 353.5 585.4 L 370.5 573" fill="none" stroke="#17110D" stroke-width="13.841294565005228" stroke-linecap="round" stroke-linejoin="round"/><path d="M 355.5 633.6 L 353.1 575.5 M 354.7 613.3 L 331.3 593.5 M 354.3 604 L 368.3 578.9 M 353.9 594.7 L 335.5 571.4 M 353.5 585.4 L 370.5 573" fill="none" stroke="#4A3423" stroke-width="4.841294565005228" stroke-linecap="round" stroke-linejoin="round"/><ellipse cx="348.6" cy="602.3" rx="4.4" ry="6.3" fill="#5A3A24" stroke="#17110D" stroke-width="1.5"/><circle cx="349.6" cy="595.6" r="3.3" fill="#6B4128" stroke="#17110D" stroke-width="1.4"/><ellipse cx="340.4" cy="595.4" rx="4.4" ry="6.3" fill="#5A3A24" stroke="#17110D" stroke-width="1.5"/><circle cx="341.4" cy="588.6" r="3.3" fill="#FFF6E4" stroke="#17110D" stroke-width="1.4"/><ellipse cx="332.5" cy="588.7" rx="4.4" ry="6.3" fill="#5A3A24" stroke="#17110D" stroke-width="1.5"/><circle cx="333.4" cy="581.9" r="3.3" fill="#6B4128" stroke="#17110D" stroke-width="1.4"/><ellipse cx="359" cy="589.7" rx="4.4" ry="6.3" fill="#5A3A24" stroke="#17110D" stroke-width="1.5"/><circle cx="360" cy="583" r="3.3" fill="#FFF6E4" stroke="#17110D" stroke-width="1.4"/><ellipse cx="362.1" cy="584.2" rx="4.4" ry="6.3" fill="#5A3A24" stroke="#17110D" stroke-width="1.5"/><circle cx="363.1" cy="577.5" r="3.3" fill="#6B4128" stroke="#17110D" stroke-width="1.4"/><ellipse cx="367.4" cy="574.8" rx="4.4" ry="6.3" fill="#5A3A24" stroke="#17110D" stroke-width="1.5"/><circle cx="368.3" cy="568" r="3.3" fill="#FFF6E4" stroke="#17110D" stroke-width="1.4"/><ellipse cx="349.1" cy="582.8" rx="4.4" ry="6.3" fill="#5A3A24" stroke="#17110D" stroke-width="1.5"/><circle cx="350.1" cy="576" r="3.3" fill="#FFF6E4" stroke="#17110D" stroke-width="1.4"/><ellipse cx="343.2" cy="575.3" rx="4.4" ry="6.3" fill="#5A3A24" stroke="#17110D" stroke-width="1.5"/><circle cx="344.2" cy="568.5" r="3.3" fill="#FFF6E4" stroke="#17110D" stroke-width="1.4"/><ellipse cx="336.5" cy="566.8" rx="4.4" ry="6.3" fill="#5A3A24" stroke="#17110D" stroke-width="1.5"/><circle cx="337.4" cy="560" r="3.3" fill="#6B4128" stroke="#17110D" stroke-width="1.4"/><ellipse cx="359.1" cy="575.5" rx="4.4" ry="6.3" fill="#5A3A24" stroke="#17110D" stroke-width="1.5"/><circle cx="360.1" cy="568.7" r="3.3" fill="#6B4128" stroke="#17110D" stroke-width="1.4"/><ellipse cx="363.3" cy="572.5" rx="4.4" ry="6.3" fill="#5A3A24" stroke="#17110D" stroke-width="1.5"/><circle cx="364.3" cy="565.7" r="3.3" fill="#FFF6E4" stroke="#17110D" stroke-width="1.4"/><ellipse cx="369.6" cy="567.8" rx="4.4" ry="6.3" fill="#5A3A24" stroke="#17110D" stroke-width="1.5"/><circle cx="370.6" cy="561.1" r="3.3" fill="#6B4128" stroke="#17110D" stroke-width="1.4"/><path d="M 461.4 629.4 L 461 564.1 M 461.3 606.5 L 434.1 584.8 M 461.2 596.1 L 486 569.2 M 461.1 585.7 L 444 561 M 461.1 575.2 L 480.6 560" fill="none" stroke="#17110D" stroke-width="14.435768473427743" stroke-linecap="round" stroke-linejoin="round"/><path d="M 461.4 629.4 L 461 564.1 M 461.3 606.5 L 434.1 584.8 M 461.2 596.1 L 486 569.2 M 461.1 585.7 L 444 561 M 461.1 575.2 L 480.6 560" fill="none" stroke="#4A3423" stroke-width="5.435768473427743" stroke-linecap="round" stroke-linejoin="round"/><ellipse cx="453.3" cy="593.6" rx="4.9" ry="7.1" fill="#5A3A24" stroke="#17110D" stroke-width="1.7"/><circle cx="454.3" cy="586" r="3.7" fill="#6B4128" stroke="#17110D" stroke-width="1.5"/><ellipse cx="444.8" cy="586.8" rx="4.9" ry="7.1" fill="#5A3A24" stroke="#17110D" stroke-width="1.7"/><circle cx="445.8" cy="579.2" r="3.7" fill="#6B4128" stroke="#17110D" stroke-width="1.5"/><ellipse cx="435.7" cy="579.5" rx="4.9" ry="7.1" fill="#5A3A24" stroke="#17110D" stroke-width="1.7"/><circle cx="436.8" cy="571.9" r="3.7" fill="#FFF6E4" stroke="#17110D" stroke-width="1.5"/><ellipse cx="469.3" cy="580.8" rx="4.9" ry="7.1" fill="#5A3A24" stroke="#17110D" stroke-width="1.7"/><circle cx="470.4" cy="573.2" r="3.7" fill="#FFF6E4" stroke="#17110D" stroke-width="1.5"/><ellipse cx="475.2" cy="574.4" rx="4.9" ry="7.1" fill="#5A3A24" stroke="#17110D" stroke-width="1.7"/><circle cx="476.3" cy="566.8" r="3.7" fill="#FFF6E4" stroke="#17110D" stroke-width="1.5"/><ellipse cx="483.9" cy="565" rx="4.9" ry="7.1" fill="#5A3A24" stroke="#17110D" stroke-width="1.7"/><circle cx="485" cy="557.4" r="3.7" fill="#6B4128" stroke="#17110D" stroke-width="1.5"/><ellipse cx="456" cy="571.8" rx="4.9" ry="7.1" fill="#5A3A24" stroke="#17110D" stroke-width="1.7"/><circle cx="457.1" cy="564.1" r="3.7" fill="#6B4128" stroke="#17110D" stroke-width="1.5"/><ellipse cx="451" cy="564.5" rx="4.9" ry="7.1" fill="#5A3A24" stroke="#17110D" stroke-width="1.7"/><circle cx="452.1" cy="556.9" r="3.7" fill="#6B4128" stroke="#17110D" stroke-width="1.5"/><ellipse cx="444.9" cy="555.9" rx="4.9" ry="7.1" fill="#5A3A24" stroke="#17110D" stroke-width="1.7"/><circle cx="446" cy="548.3" r="3.7" fill="#6B4128" stroke="#17110D" stroke-width="1.5"/><ellipse cx="466.1" cy="564.8" rx="4.9" ry="7.1" fill="#5A3A24" stroke="#17110D" stroke-width="1.7"/><circle cx="467.2" cy="557.2" r="3.7" fill="#6B4128" stroke="#17110D" stroke-width="1.5"/><ellipse cx="471.8" cy="560.3" rx="4.9" ry="7.1" fill="#5A3A24" stroke="#17110D" stroke-width="1.7"/><circle cx="472.9" cy="552.7" r="3.7" fill="#6B4128" stroke="#17110D" stroke-width="1.5"/><ellipse cx="479.5" cy="554.3" rx="4.9" ry="7.1" fill="#5A3A24" stroke="#17110D" stroke-width="1.7"/><circle cx="480.6" cy="546.7" r="3.7" fill="#6B4128" stroke="#17110D" stroke-width="1.5"/><path d="M 568 632.2 L 566.7 555.4 M 567.5 605.3 L 541.1 588.3 M 567.3 593 L 588.4 574 M 567.1 580.7 L 548 558 M 566.9 568.4 L 588.8 546.3" fill="none" stroke="#17110D" stroke-width="15.401661982992664" stroke-linecap="round" stroke-linejoin="round"/><path d="M 568 632.2 L 566.7 555.4 M 567.5 605.3 L 541.1 588.3 M 567.3 593 L 588.4 574 M 567.1 580.7 L 548 558 M 566.9 568.4 L 588.8 546.3" fill="none" stroke="#4A3423" stroke-width="6.401661982992664" stroke-linecap="round" stroke-linejoin="round"/><ellipse cx="560" cy="592.8" rx="5.8" ry="8.3" fill="#5A3A24" stroke="#17110D" stroke-width="2"/><circle cx="561.3" cy="583.8" r="4.4" fill="#6B4128" stroke="#17110D" stroke-width="1.8"/><ellipse cx="552.8" cy="588.1" rx="5.8" ry="8.3" fill="#5A3A24" stroke="#17110D" stroke-width="2"/><circle cx="554" cy="579.1" r="4.4" fill="#FFF6E4" stroke="#17110D" stroke-width="1.8"/><ellipse cx="544.6" cy="582.8" rx="5.8" ry="8.3" fill="#5A3A24" stroke="#17110D" stroke-width="2"/><circle cx="545.8" cy="573.9" r="4.4" fill="#FFF6E4" stroke="#17110D" stroke-width="1.8"/><ellipse cx="573.5" cy="579.8" rx="5.8" ry="8.3" fill="#5A3A24" stroke="#17110D" stroke-width="2"/><circle cx="574.7" cy="570.8" r="4.4" fill="#FFF6E4" stroke="#17110D" stroke-width="1.8"/><ellipse cx="579.7" cy="574.2" rx="5.8" ry="8.3" fill="#5A3A24" stroke="#17110D" stroke-width="2"/><circle cx="581" cy="565.2" r="4.4" fill="#6B4128" stroke="#17110D" stroke-width="1.8"/><ellipse cx="586.7" cy="567.8" rx="5.8" ry="8.3" fill="#5A3A24" stroke="#17110D" stroke-width="2"/><circle cx="588" cy="558.9" r="4.4" fill="#FFF6E4" stroke="#17110D" stroke-width="1.8"/><ellipse cx="560.7" cy="565.3" rx="5.8" ry="8.3" fill="#5A3A24" stroke="#17110D" stroke-width="2"/><circle cx="561.9" cy="556.4" r="4.4" fill="#6B4128" stroke="#17110D" stroke-width="1.8"/><ellipse cx="555.3" cy="559" rx="5.8" ry="8.3" fill="#5A3A24" stroke="#17110D" stroke-width="2"/><circle cx="556.6" cy="550" r="4.4" fill="#FFF6E4" stroke="#17110D" stroke-width="1.8"/><ellipse cx="550.8" cy="553.6" rx="5.8" ry="8.3" fill="#5A3A24" stroke="#17110D" stroke-width="2"/><circle cx="552.1" cy="544.7" r="4.4" fill="#6B4128" stroke="#17110D" stroke-width="1.8"/><ellipse cx="574.1" cy="553.5" rx="5.8" ry="8.3" fill="#5A3A24" stroke="#17110D" stroke-width="2"/><circle cx="575.3" cy="544.6" r="4.4" fill="#6B4128" stroke="#17110D" stroke-width="1.8"/><ellipse cx="579.2" cy="548.4" rx="5.8" ry="8.3" fill="#5A3A24" stroke="#17110D" stroke-width="2"/><circle cx="580.5" cy="539.4" r="4.4" fill="#FFF6E4" stroke="#17110D" stroke-width="1.8"/><ellipse cx="585.9" cy="541.5" rx="5.8" ry="8.3" fill="#5A3A24" stroke="#17110D" stroke-width="2"/><circle cx="587.2" cy="532.6" r="4.4" fill="#FFF6E4" stroke="#17110D" stroke-width="1.8"/><path d="M 666.8 628.9 L 667.4 557.1 M 667 603.8 L 644.6 586.7 M 667.1 592.3 L 684.2 574.4 M 667.2 580.8 L 636.2 554.3 M 667.3 569.3 L 689.4 538.5" fill="none" stroke="#17110D" stroke-width="14.98214892775286" stroke-linecap="round" stroke-linejoin="round"/><path d="M 666.8 628.9 L 667.4 557.1 M 667 603.8 L 644.6 586.7 M 667.1 592.3 L 684.2 574.4 M 667.2 580.8 L 636.2 554.3 M 667.3 569.3 L 689.4 538.5" fill="none" stroke="#4A3423" stroke-width="5.98214892775286" stroke-linecap="round" stroke-linejoin="round"/><ellipse cx="660.1" cy="591.3" rx="5.4" ry="7.8" fill="#5A3A24" stroke="#17110D" stroke-width="1.9"/><circle cx="661.3" cy="582.9" r="4.1" fill="#FFF6E4" stroke="#17110D" stroke-width="1.7"/><ellipse cx="654.4" cy="586.9" rx="5.4" ry="7.8" fill="#5A3A24" stroke="#17110D" stroke-width="1.9"/><circle cx="655.6" cy="578.6" r="4.1" fill="#FFF6E4" stroke="#17110D" stroke-width="1.7"/><ellipse cx="647.5" cy="581.7" rx="5.4" ry="7.8" fill="#5A3A24" stroke="#17110D" stroke-width="1.9"/><circle cx="648.7" cy="573.4" r="4.1" fill="#6B4128" stroke="#17110D" stroke-width="1.7"/><ellipse cx="672.6" cy="579.3" rx="5.4" ry="7.8" fill="#5A3A24" stroke="#17110D" stroke-width="1.9"/><circle cx="673.8" cy="571" r="4.1" fill="#FFF6E4" stroke="#17110D" stroke-width="1.7"/><ellipse cx="678.2" cy="573.5" rx="5.4" ry="7.8" fill="#5A3A24" stroke="#17110D" stroke-width="1.9"/><circle cx="679.4" cy="565.2" r="4.1" fill="#FFF6E4" stroke="#17110D" stroke-width="1.7"/><ellipse cx="682.2" cy="569.4" rx="5.4" ry="7.8" fill="#5A3A24" stroke="#17110D" stroke-width="1.9"/><circle cx="683.4" cy="561" r="4.1" fill="#FFF6E4" stroke="#17110D" stroke-width="1.7"/><ellipse cx="657.9" cy="565.6" rx="5.4" ry="7.8" fill="#5A3A24" stroke="#17110D" stroke-width="1.9"/><circle cx="659.1" cy="557.3" r="4.1" fill="#FFF6E4" stroke="#17110D" stroke-width="1.7"/><ellipse cx="647.8" cy="557" rx="5.4" ry="7.8" fill="#5A3A24" stroke="#17110D" stroke-width="1.9"/><circle cx="649" cy="548.7" r="4.1" fill="#FFF6E4" stroke="#17110D" stroke-width="1.7"/><ellipse cx="638.2" cy="548.8" rx="5.4" ry="7.8" fill="#5A3A24" stroke="#17110D" stroke-width="1.9"/><circle cx="639.4" cy="540.5" r="4.1" fill="#FFF6E4" stroke="#17110D" stroke-width="1.7"/><ellipse cx="674.5" cy="552" rx="5.4" ry="7.8" fill="#5A3A24" stroke="#17110D" stroke-width="1.9"/><circle cx="675.7" cy="543.7" r="4.1" fill="#6B4128" stroke="#17110D" stroke-width="1.7"/><ellipse cx="681" cy="543.1" rx="5.4" ry="7.8" fill="#5A3A24" stroke="#17110D" stroke-width="1.9"/><circle cx="682.2" cy="534.7" r="4.1" fill="#FFF6E4" stroke="#17110D" stroke-width="1.7"/><ellipse cx="686.7" cy="535.1" rx="5.4" ry="7.8" fill="#5A3A24" stroke="#17110D" stroke-width="1.9"/><circle cx="687.9" cy="526.7" r="4.1" fill="#6B4128" stroke="#17110D" stroke-width="1.7"/><path d="M 763.3 639.2 L 761.4 579.9 M 762.6 618.4 L 747.5 601.4 M 762.3 608.9 L 776.9 592 M 762 599.4 L 745.5 574.6 M 761.7 589.9 L 781.7 570.6" fill="none" stroke="#17110D" stroke-width="13.94490358501207" stroke-linecap="round" stroke-linejoin="round"/><path d="M 763.3 639.2 L 761.4 579.9 M 762.6 618.4 L 747.5 601.4 M 762.3 608.9 L 776.9 592 M 762 599.4 L 745.5 574.6 M 761.7 589.9 L 781.7 570.6" fill="none" stroke="#4A3423" stroke-width="4.944903585012071" stroke-linecap="round" stroke-linejoin="round"/><ellipse cx="758.6" cy="607.9" rx="4.5" ry="6.4" fill="#5A3A24" stroke="#17110D" stroke-width="1.6"/><circle cx="759.6" cy="601" r="3.4" fill="#FFF6E4" stroke="#17110D" stroke-width="1.4"/><ellipse cx="753.8" cy="602.5" rx="4.5" ry="6.4" fill="#5A3A24" stroke="#17110D" stroke-width="1.6"/><circle cx="754.7" cy="595.6" r="3.4" fill="#FFF6E4" stroke="#17110D" stroke-width="1.4"/><ellipse cx="749.2" cy="597.4" rx="4.5" ry="6.4" fill="#5A3A24" stroke="#17110D" stroke-width="1.6"/><circle cx="750.2" cy="590.5" r="3.4" fill="#FFF6E4" stroke="#17110D" stroke-width="1.4"/><ellipse cx="767.3" cy="597.2" rx="4.5" ry="6.4" fill="#5A3A24" stroke="#17110D" stroke-width="1.6"/><circle cx="768.3" cy="590.2" r="3.4" fill="#6B4128" stroke="#17110D" stroke-width="1.4"/><ellipse cx="771.1" cy="592.8" rx="4.5" ry="6.4" fill="#5A3A24" stroke="#17110D" stroke-width="1.6"/><circle cx="772.1" cy="585.8" r="3.4" fill="#6B4128" stroke="#17110D" stroke-width="1.4"/><ellipse cx="776.1" cy="587" rx="4.5" ry="6.4" fill="#5A3A24" stroke="#17110D" stroke-width="1.6"/><circle cx="777.1" cy="580" r="3.4" fill="#6B4128" stroke="#17110D" stroke-width="1.4"/><ellipse cx="757.2" cy="586.2" rx="4.5" ry="6.4" fill="#5A3A24" stroke="#17110D" stroke-width="1.6"/><circle cx="758.2" cy="579.3" r="3.4" fill="#FFF6E4" stroke="#17110D" stroke-width="1.4"/><ellipse cx="752.7" cy="579.4" rx="4.5" ry="6.4" fill="#5A3A24" stroke="#17110D" stroke-width="1.6"/><circle cx="753.7" cy="572.5" r="3.4" fill="#6B4128" stroke="#17110D" stroke-width="1.4"/><ellipse cx="747.2" cy="571.1" rx="4.5" ry="6.4" fill="#5A3A24" stroke="#17110D" stroke-width="1.6"/><circle cx="748.1" cy="564.2" r="3.4" fill="#FFF6E4" stroke="#17110D" stroke-width="1.4"/><ellipse cx="767.6" cy="578.3" rx="4.5" ry="6.4" fill="#5A3A24" stroke="#17110D" stroke-width="1.6"/><circle cx="768.6" cy="571.4" r="3.4" fill="#6B4128" stroke="#17110D" stroke-width="1.4"/><ellipse cx="773.3" cy="572.8" rx="4.5" ry="6.4" fill="#5A3A24" stroke="#17110D" stroke-width="1.6"/><circle cx="774.3" cy="565.9" r="3.4" fill="#6B4128" stroke="#17110D" stroke-width="1.4"/><ellipse cx="779.3" cy="567" rx="4.5" ry="6.4" fill="#5A3A24" stroke="#17110D" stroke-width="1.6"/><circle cx="780.3" cy="560" r="3.4" fill="#6B4128" stroke="#17110D" stroke-width="1.4"/><path d="M 879.2 627.9 L 878.3 563.3 M 878.9 605.3 L 859.6 577.4 M 878.7 595 L 904.2 571.7 M 878.6 584.6 L 859.1 564.8 M 878.4 574.3 L 899.4 550.2" fill="none" stroke="#17110D" stroke-width="14.389797430136241" stroke-linecap="round" stroke-linejoin="round"/><path d="M 879.2 627.9 L 878.3 563.3 M 878.9 605.3 L 859.6 577.4 M 878.7 595 L 904.2 571.7 M 878.6 584.6 L 859.1 564.8 M 878.4 574.3 L 899.4 550.2" fill="none" stroke="#4A3423" stroke-width="5.389797430136241" stroke-linecap="round" stroke-linejoin="round"/><ellipse cx="873.4" cy="590.9" rx="4.9" ry="7" fill="#5A3A24" stroke="#17110D" stroke-width="1.7"/><circle cx="874.4" cy="583.3" r="3.7" fill="#FFF6E4" stroke="#17110D" stroke-width="1.5"/><ellipse cx="866.4" cy="580.7" rx="4.9" ry="7" fill="#5A3A24" stroke="#17110D" stroke-width="1.7"/><circle cx="867.4" cy="573.2" r="3.7" fill="#6B4128" stroke="#17110D" stroke-width="1.5"/><ellipse cx="861.2" cy="573.2" rx="4.9" ry="7" fill="#5A3A24" stroke="#17110D" stroke-width="1.7"/><circle cx="862.3" cy="565.7" r="3.7" fill="#FFF6E4" stroke="#17110D" stroke-width="1.5"/><ellipse cx="886.3" cy="581.6" rx="4.9" ry="7" fill="#5A3A24" stroke="#17110D" stroke-width="1.7"/><circle cx="887.3" cy="574.1" r="3.7" fill="#6B4128" stroke="#17110D" stroke-width="1.5"/><ellipse cx="894.6" cy="574" rx="4.9" ry="7" fill="#5A3A24" stroke="#17110D" stroke-width="1.7"/><circle cx="895.7" cy="566.4" r="3.7" fill="#6B4128" stroke="#17110D" stroke-width="1.5"/><ellipse cx="901.9" cy="567.3" rx="4.9" ry="7" fill="#5A3A24" stroke="#17110D" stroke-width="1.7"/><circle cx="902.9" cy="559.8" r="3.7" fill="#FFF6E4" stroke="#17110D" stroke-width="1.5"/><ellipse cx="872.4" cy="571.8" rx="4.9" ry="7" fill="#5A3A24" stroke="#17110D" stroke-width="1.7"/><circle cx="873.5" cy="564.3" r="3.7" fill="#6B4128" stroke="#17110D" stroke-width="1.5"/><ellipse cx="867.4" cy="566.7" rx="4.9" ry="7" fill="#5A3A24" stroke="#17110D" stroke-width="1.7"/><circle cx="868.5" cy="559.2" r="3.7" fill="#FFF6E4" stroke="#17110D" stroke-width="1.5"/><ellipse cx="861.3" cy="560.5" rx="4.9" ry="7" fill="#5A3A24" stroke="#17110D" stroke-width="1.7"/><circle cx="862.4" cy="553" r="3.7" fill="#6B4128" stroke="#17110D" stroke-width="1.5"/><ellipse cx="885.5" cy="559.7" rx="4.9" ry="7" fill="#5A3A24" stroke="#17110D" stroke-width="1.7"/><circle cx="886.6" cy="552.2" r="3.7" fill="#FFF6E4" stroke="#17110D" stroke-width="1.5"/><ellipse cx="890.1" cy="554.5" rx="4.9" ry="7" fill="#5A3A24" stroke="#17110D" stroke-width="1.7"/><circle cx="891.2" cy="546.9" r="3.7" fill="#6B4128" stroke="#17110D" stroke-width="1.5"/><ellipse cx="896.4" cy="547.3" rx="4.9" ry="7" fill="#5A3A24" stroke="#17110D" stroke-width="1.7"/><circle cx="897.5" cy="539.7" r="3.7" fill="#FFF6E4" stroke="#17110D" stroke-width="1.5"/><path d="M 974.6 639.4 L 975.9 563.8 M 975 613 L 952.5 596.8 M 975.2 600.9 L 1001.9 577 M 975.4 588.8 L 942.9 560.3 M 975.7 576.7 L 996 558" fill="none" stroke="#17110D" stroke-width="15.297427959390916" stroke-linecap="round" stroke-linejoin="round"/><path d="M 974.6 639.4 L 975.9 563.8 M 975 613 L 952.5 596.8 M 975.2 600.9 L 1001.9 577 M 975.4 588.8 L 942.9 560.3 M 975.7 576.7 L 996 558" fill="none" stroke="#4A3423" stroke-width="6.297427959390916" stroke-linecap="round" stroke-linejoin="round"/><ellipse cx="967.9" cy="600.3" rx="5.7" ry="8.2" fill="#5A3A24" stroke="#17110D" stroke-width="2"/><circle cx="969.1" cy="591.5" r="4.3" fill="#FFF6E4" stroke="#17110D" stroke-width="1.8"/><ellipse cx="962.5" cy="596.4" rx="5.7" ry="8.2" fill="#5A3A24" stroke="#17110D" stroke-width="2"/><circle cx="963.8" cy="587.6" r="4.3" fill="#6B4128" stroke="#17110D" stroke-width="1.8"/><ellipse cx="954.8" cy="590.9" rx="5.7" ry="8.2" fill="#5A3A24" stroke="#17110D" stroke-width="2"/><circle cx="956" cy="582.1" r="4.3" fill="#6B4128" stroke="#17110D" stroke-width="1.8"/><ellipse cx="983.9" cy="585.5" rx="5.7" ry="8.2" fill="#5A3A24" stroke="#17110D" stroke-width="2"/><circle cx="985.2" cy="576.7" r="4.3" fill="#FFF6E4" stroke="#17110D" stroke-width="1.8"/><ellipse cx="990.5" cy="579.7" rx="5.7" ry="8.2" fill="#5A3A24" stroke="#17110D" stroke-width="2"/><circle cx="991.7" cy="570.9" r="4.3" fill="#6B4128" stroke="#17110D" stroke-width="1.8"/><ellipse cx="998.9" cy="572.1" rx="5.7" ry="8.2" fill="#5A3A24" stroke="#17110D" stroke-width="2"/><circle cx="1000.2" cy="563.3" r="4.3" fill="#FFF6E4" stroke="#17110D" stroke-width="1.8"/><ellipse cx="965.8" cy="572.8" rx="5.7" ry="8.2" fill="#5A3A24" stroke="#17110D" stroke-width="2"/><circle cx="967.1" cy="564" r="4.3" fill="#6B4128" stroke="#17110D" stroke-width="1.8"/><ellipse cx="955.2" cy="563.5" rx="5.7" ry="8.2" fill="#5A3A24" stroke="#17110D" stroke-width="2"/><circle cx="956.4" cy="554.6" r="4.3" fill="#6B4128" stroke="#17110D" stroke-width="1.8"/><ellipse cx="945.4" cy="554.9" rx="5.7" ry="8.2" fill="#5A3A24" stroke="#17110D" stroke-width="2"/><circle cx="946.7" cy="546.1" r="4.3" fill="#6B4128" stroke="#17110D" stroke-width="1.8"/><ellipse cx="980.8" cy="564.4" rx="5.7" ry="8.2" fill="#5A3A24" stroke="#17110D" stroke-width="2"/><circle cx="982" cy="555.6" r="4.3" fill="#FFF6E4" stroke="#17110D" stroke-width="1.8"/><ellipse cx="988.1" cy="557.7" rx="5.7" ry="8.2" fill="#5A3A24" stroke="#17110D" stroke-width="2"/><circle cx="989.3" cy="548.9" r="4.3" fill="#6B4128" stroke="#17110D" stroke-width="1.8"/><ellipse cx="993.6" cy="552.6" rx="5.7" ry="8.2" fill="#5A3A24" stroke="#17110D" stroke-width="2"/><circle cx="994.9" cy="543.8" r="4.3" fill="#6B4128" stroke="#17110D" stroke-width="1.8"/><path d="M 1076.6 638.7 L 1077.4 572.4 M 1076.9 615.5 L 1053.6 590.7 M 1077 604.9 L 1097.7 577.6 M 1077.1 594.3 L 1056.8 578 M 1077.2 583.7 L 1099.2 560" fill="none" stroke="#17110D" stroke-width="14.52323139377404" stroke-linecap="round" stroke-linejoin="round"/><path d="M 1076.6 638.7 L 1077.4 572.4 M 1076.9 615.5 L 1053.6 590.7 M 1077 604.9 L 1097.7 577.6 M 1077.1 594.3 L 1056.8 578 M 1077.2 583.7 L 1099.2 560" fill="none" stroke="#4A3423" stroke-width="5.52323139377404" stroke-linecap="round" stroke-linejoin="round"/><ellipse cx="1069.6" cy="601.2" rx="5" ry="7.2" fill="#5A3A24" stroke="#17110D" stroke-width="1.8"/><circle cx="1070.7" cy="593.4" r="3.8" fill="#6B4128" stroke="#17110D" stroke-width="1.5"/><ellipse cx="1062.3" cy="593.4" rx="5" ry="7.2" fill="#5A3A24" stroke="#17110D" stroke-width="1.8"/><circle cx="1063.4" cy="585.7" r="3.8" fill="#FFF6E4" stroke="#17110D" stroke-width="1.5"/><ellipse cx="1055" cy="585.6" rx="5" ry="7.2" fill="#5A3A24" stroke="#17110D" stroke-width="1.8"/><circle cx="1056.1" cy="577.8" r="3.8" fill="#FFF6E4" stroke="#17110D" stroke-width="1.5"/><ellipse cx="1082.6" cy="590.9" rx="5" ry="7.2" fill="#5A3A24" stroke="#17110D" stroke-width="1.8"/><circle cx="1083.7" cy="583.2" r="3.8" fill="#6B4128" stroke="#17110D" stroke-width="1.5"/><ellipse cx="1089.8" cy="581.4" rx="5" ry="7.2" fill="#5A3A24" stroke="#17110D" stroke-width="1.8"/><circle cx="1090.9" cy="573.7" r="3.8" fill="#6B4128" stroke="#17110D" stroke-width="1.5"/><ellipse cx="1096.3" cy="572.9" rx="5" ry="7.2" fill="#5A3A24" stroke="#17110D" stroke-width="1.8"/><circle cx="1097.4" cy="565.1" r="3.8" fill="#FFF6E4" stroke="#17110D" stroke-width="1.5"/><ellipse cx="1072" cy="583.6" rx="5" ry="7.2" fill="#5A3A24" stroke="#17110D" stroke-width="1.8"/><circle cx="1073.1" cy="575.8" r="3.8" fill="#FFF6E4" stroke="#17110D" stroke-width="1.5"/><ellipse cx="1064.1" cy="577.2" rx="5" ry="7.2" fill="#5A3A24" stroke="#17110D" stroke-width="1.8"/><circle cx="1065.2" cy="569.5" r="3.8" fill="#6B4128" stroke="#17110D" stroke-width="1.5"/><ellipse cx="1059.2" cy="573.3" rx="5" ry="7.2" fill="#5A3A24" stroke="#17110D" stroke-width="1.8"/><circle cx="1060.3" cy="565.6" r="3.8" fill="#6B4128" stroke="#17110D" stroke-width="1.5"/><ellipse cx="1084.6" cy="569.2" rx="5" ry="7.2" fill="#5A3A24" stroke="#17110D" stroke-width="1.8"/><circle cx="1085.7" cy="561.4" r="3.8" fill="#6B4128" stroke="#17110D" stroke-width="1.5"/><ellipse cx="1090.2" cy="563.1" rx="5" ry="7.2" fill="#5A3A24" stroke="#17110D" stroke-width="1.8"/><circle cx="1091.3" cy="555.4" r="3.8" fill="#6B4128" stroke="#17110D" stroke-width="1.5"/><ellipse cx="1097.6" cy="555.1" rx="5" ry="7.2" fill="#5A3A24" stroke="#17110D" stroke-width="1.8"/><circle cx="1098.7" cy="547.4" r="3.8" fill="#FFF6E4" stroke="#17110D" stroke-width="1.5"/><path d="M 1163.2 626.6 L 1162.8 563.1 M 1163 604.4 L 1145.2 580.4 M 1163 594.2 L 1180.4 571.5 M 1162.9 584.1 L 1147.8 566.7 M 1162.9 573.9 L 1186.2 555.7" fill="none" stroke="#17110D" stroke-width="14.294567901757546" stroke-linecap="round" stroke-linejoin="round"/><path d="M 1163.2 626.6 L 1162.8 563.1 M 1163 604.4 L 1145.2 580.4 M 1163 594.2 L 1180.4 571.5 M 1162.9 584.1 L 1147.8 566.7 M 1162.9 573.9 L 1186.2 555.7" fill="none" stroke="#4A3423" stroke-width="5.294567901757546" stroke-linecap="round" stroke-linejoin="round"/><ellipse cx="1157.8" cy="591" rx="4.8" ry="6.9" fill="#5A3A24" stroke="#17110D" stroke-width="1.7"/><circle cx="1158.9" cy="583.6" r="3.6" fill="#FFF6E4" stroke="#17110D" stroke-width="1.5"/><ellipse cx="1151.9" cy="583" rx="4.8" ry="6.9" fill="#5A3A24" stroke="#17110D" stroke-width="1.7"/><circle cx="1152.9" cy="575.6" r="3.6" fill="#FFF6E4" stroke="#17110D" stroke-width="1.5"/><ellipse cx="1146.7" cy="576" rx="4.8" ry="6.9" fill="#5A3A24" stroke="#17110D" stroke-width="1.7"/><circle cx="1147.7" cy="568.6" r="3.6" fill="#FFF6E4" stroke="#17110D" stroke-width="1.5"/><ellipse cx="1167.9" cy="581.5" rx="4.8" ry="6.9" fill="#5A3A24" stroke="#17110D" stroke-width="1.7"/><circle cx="1168.9" cy="574.1" r="3.6" fill="#6B4128" stroke="#17110D" stroke-width="1.5"/><ellipse cx="1173.2" cy="574.5" rx="4.8" ry="6.9" fill="#5A3A24" stroke="#17110D" stroke-width="1.7"/><circle cx="1174.3" cy="567.1" r="3.6" fill="#FFF6E4" stroke="#17110D" stroke-width="1.5"/><ellipse cx="1179.4" cy="566.4" rx="4.8" ry="6.9" fill="#5A3A24" stroke="#17110D" stroke-width="1.7"/><circle cx="1180.5" cy="559" r="3.6" fill="#6B4128" stroke="#17110D" stroke-width="1.5"/><ellipse cx="1158" cy="572" rx="4.8" ry="6.9" fill="#5A3A24" stroke="#17110D" stroke-width="1.7"/><circle cx="1159" cy="564.6" r="3.6" fill="#6B4128" stroke="#17110D" stroke-width="1.5"/><ellipse cx="1153.2" cy="566.6" rx="4.8" ry="6.9" fill="#5A3A24" stroke="#17110D" stroke-width="1.7"/><circle cx="1154.3" cy="559.1" r="3.6" fill="#FFF6E4" stroke="#17110D" stroke-width="1.5"/><ellipse cx="1149.9" cy="562.8" rx="4.8" ry="6.9" fill="#5A3A24" stroke="#17110D" stroke-width="1.7"/><circle cx="1151" cy="555.4" r="3.6" fill="#6B4128" stroke="#17110D" stroke-width="1.5"/><ellipse cx="1170.3" cy="561.8" rx="4.8" ry="6.9" fill="#5A3A24" stroke="#17110D" stroke-width="1.7"/><circle cx="1171.3" cy="554.4" r="3.6" fill="#6B4128" stroke="#17110D" stroke-width="1.5"/><ellipse cx="1177.5" cy="556.2" rx="4.8" ry="6.9" fill="#5A3A24" stroke="#17110D" stroke-width="1.7"/><circle cx="1178.5" cy="548.8" r="3.6" fill="#6B4128" stroke="#17110D" stroke-width="1.5"/><ellipse cx="1183.6" cy="551.4" rx="4.8" ry="6.9" fill="#5A3A24" stroke="#17110D" stroke-width="1.7"/><circle cx="1184.6" cy="544" r="3.6" fill="#FFF6E4" stroke="#17110D" stroke-width="1.5"/><path d="M 1283.1 636.5 L 1285.8 558.7 M 1284 609.3 L 1256.1 586.6 M 1284.4 596.8 L 1313 575.6 M 1284.9 584.4 L 1254.4 551.1 M 1285.3 571.9 L 1312.2 545.1" fill="none" stroke="#17110D" stroke-width="15.485626493697055" stroke-linecap="round" stroke-linejoin="round"/><path d="M 1283.1 636.5 L 1285.8 558.7 M 1284 609.3 L 1256.1 586.6 M 1284.4 596.8 L 1313 575.6 M 1284.9 584.4 L 1254.4 551.1 M 1285.3 571.9 L 1312.2 545.1" fill="none" stroke="#4A3423" stroke-width="6.485626493697055" stroke-linecap="round" stroke-linejoin="round"/><ellipse cx="1274.7" cy="593.9" rx="5.8" ry="8.4" fill="#5A3A24" stroke="#17110D" stroke-width="2.1"/><circle cx="1276" cy="584.8" r="4.4" fill="#6B4128" stroke="#17110D" stroke-width="1.8"/><ellipse cx="1267.6" cy="588.1" rx="5.8" ry="8.4" fill="#5A3A24" stroke="#17110D" stroke-width="2.1"/><circle cx="1268.9" cy="579.1" r="4.4" fill="#6B4128" stroke="#17110D" stroke-width="1.8"/><ellipse cx="1259.4" cy="581.5" rx="5.8" ry="8.4" fill="#5A3A24" stroke="#17110D" stroke-width="2.1"/><circle cx="1260.7" cy="572.4" r="4.4" fill="#6B4128" stroke="#17110D" stroke-width="1.8"/><ellipse cx="1294.4" cy="581.7" rx="5.8" ry="8.4" fill="#5A3A24" stroke="#17110D" stroke-width="2.1"/><circle cx="1295.6" cy="572.6" r="4.4" fill="#6B4128" stroke="#17110D" stroke-width="1.8"/><ellipse cx="1301.9" cy="576.1" rx="5.8" ry="8.4" fill="#5A3A24" stroke="#17110D" stroke-width="2.1"/><circle cx="1303.2" cy="567" r="4.4" fill="#6B4128" stroke="#17110D" stroke-width="1.8"/><ellipse cx="1309.5" cy="570.5" rx="5.8" ry="8.4" fill="#5A3A24" stroke="#17110D" stroke-width="2.1"/><circle cx="1310.8" cy="561.4" r="4.4" fill="#FFF6E4" stroke="#17110D" stroke-width="1.8"/><ellipse cx="1276.7" cy="567.7" rx="5.8" ry="8.4" fill="#5A3A24" stroke="#17110D" stroke-width="2.1"/><circle cx="1278" cy="558.6" r="4.4" fill="#6B4128" stroke="#17110D" stroke-width="1.8"/><ellipse cx="1267.7" cy="557.8" rx="5.8" ry="8.4" fill="#5A3A24" stroke="#17110D" stroke-width="2.1"/><circle cx="1269" cy="548.7" r="4.4" fill="#6B4128" stroke="#17110D" stroke-width="1.8"/><ellipse cx="1258" cy="547.3" rx="5.8" ry="8.4" fill="#5A3A24" stroke="#17110D" stroke-width="2.1"/><circle cx="1259.3" cy="538.2" r="4.4" fill="#6B4128" stroke="#17110D" stroke-width="1.8"/><ellipse cx="1293.5" cy="555.9" rx="5.8" ry="8.4" fill="#5A3A24" stroke="#17110D" stroke-width="2.1"/><circle cx="1294.8" cy="546.9" r="4.4" fill="#FFF6E4" stroke="#17110D" stroke-width="1.8"/><ellipse cx="1301.1" cy="548.3" rx="5.8" ry="8.4" fill="#5A3A24" stroke="#17110D" stroke-width="2.1"/><circle cx="1302.4" cy="539.3" r="4.4" fill="#6B4128" stroke="#17110D" stroke-width="1.8"/><ellipse cx="1309.3" cy="540.2" rx="5.8" ry="8.4" fill="#5A3A24" stroke="#17110D" stroke-width="2.1"/><circle cx="1310.6" cy="531.1" r="4.4" fill="#FFF6E4" stroke="#17110D" stroke-width="1.8"/><path d="M 1370.5 639.1 L 1366.9 563.6 M 1369.3 612.6 L 1340.6 595.3 M 1368.7 600.6 L 1400.5 571.4 M 1368.1 588.5 L 1338.5 569.1 M 1367.5 576.4 L 1385.2 560.6" fill="none" stroke="#17110D" stroke-width="15.293288607150316" stroke-linecap="round" stroke-linejoin="round"/><path d="M 1370.5 639.1 L 1366.9 563.6 M 1369.3 612.6 L 1340.6 595.3 M 1368.7 600.6 L 1400.5 571.4 M 1368.1 588.5 L 1338.5 569.1 M 1367.5 576.4 L 1385.2 560.6" fill="none" stroke="#4A3423" stroke-width="6.293288607150316" stroke-linecap="round" stroke-linejoin="round"/><ellipse cx="1362.1" cy="600.7" rx="5.7" ry="8.2" fill="#5A3A24" stroke="#17110D" stroke-width="2"/><circle cx="1363.3" cy="591.9" r="4.3" fill="#6B4128" stroke="#17110D" stroke-width="1.8"/><ellipse cx="1353.2" cy="595.3" rx="5.7" ry="8.2" fill="#5A3A24" stroke="#17110D" stroke-width="2"/><circle cx="1354.4" cy="586.5" r="4.3" fill="#6B4128" stroke="#17110D" stroke-width="1.8"/><ellipse cx="1342.6" cy="589" rx="5.7" ry="8.2" fill="#5A3A24" stroke="#17110D" stroke-width="2"/><circle cx="1343.9" cy="580.2" r="4.3" fill="#6B4128" stroke="#17110D" stroke-width="1.8"/><ellipse cx="1377.4" cy="585" rx="5.7" ry="8.2" fill="#5A3A24" stroke="#17110D" stroke-width="2"/><circle cx="1378.7" cy="576.2" r="4.3" fill="#FFF6E4" stroke="#17110D" stroke-width="1.8"/><ellipse cx="1386.3" cy="576.8" rx="5.7" ry="8.2" fill="#5A3A24" stroke="#17110D" stroke-width="2"/><circle cx="1387.6" cy="568" r="4.3" fill="#6B4128" stroke="#17110D" stroke-width="1.8"/><ellipse cx="1396" cy="568" rx="5.7" ry="8.2" fill="#5A3A24" stroke="#17110D" stroke-width="2"/><circle cx="1397.2" cy="559.2" r="4.3" fill="#6B4128" stroke="#17110D" stroke-width="1.8"/><ellipse cx="1358.8" cy="574.8" rx="5.7" ry="8.2" fill="#5A3A24" stroke="#17110D" stroke-width="2"/><circle cx="1360.1" cy="566" r="4.3" fill="#FFF6E4" stroke="#17110D" stroke-width="1.8"/><ellipse cx="1349.6" cy="568.8" rx="5.7" ry="8.2" fill="#5A3A24" stroke="#17110D" stroke-width="2"/><circle cx="1350.8" cy="560" r="4.3" fill="#FFF6E4" stroke="#17110D" stroke-width="1.8"/><ellipse cx="1342" cy="563.9" rx="5.7" ry="8.2" fill="#5A3A24" stroke="#17110D" stroke-width="2"/><circle cx="1343.3" cy="555.1" r="4.3" fill="#FFF6E4" stroke="#17110D" stroke-width="1.8"/><ellipse cx="1372.7" cy="564.2" rx="5.7" ry="8.2" fill="#5A3A24" stroke="#17110D" stroke-width="2"/><circle cx="1373.9" cy="555.4" r="4.3" fill="#6B4128" stroke="#17110D" stroke-width="1.8"/><ellipse cx="1377.4" cy="560.1" rx="5.7" ry="8.2" fill="#5A3A24" stroke="#17110D" stroke-width="2"/><circle cx="1378.6" cy="551.2" r="4.3" fill="#6B4128" stroke="#17110D" stroke-width="1.8"/><ellipse cx="1382.5" cy="555.4" rx="5.7" ry="8.2" fill="#5A3A24" stroke="#17110D" stroke-width="2"/><circle cx="1383.8" cy="546.6" r="4.3" fill="#6B4128" stroke="#17110D" stroke-width="1.8"/><path d="M 1484.5 630.3 L 1483.2 551.3 M 1484 602.7 L 1457.8 575.6 M 1483.8 590 L 1503.4 569.7 M 1483.6 577.4 L 1456.5 552 M 1483.4 564.8 L 1514.5 542.1" fill="none" stroke="#17110D" stroke-width="15.584294779924676" stroke-linecap="round" stroke-linejoin="round"/><path d="M 1484.5 630.3 L 1483.2 551.3 M 1484 602.7 L 1457.8 575.6 M 1483.8 590 L 1503.4 569.7 M 1483.6 577.4 L 1456.5 552 M 1483.4 564.8 L 1514.5 542.1" fill="none" stroke="#4A3423" stroke-width="6.584294779924676" stroke-linecap="round" stroke-linejoin="round"/><ellipse cx="1476.6" cy="587.1" rx="5.9" ry="8.6" fill="#5A3A24" stroke="#17110D" stroke-width="2.1"/><circle cx="1477.9" cy="577.9" r="4.5" fill="#6B4128" stroke="#17110D" stroke-width="1.8"/><ellipse cx="1468" cy="578.3" rx="5.9" ry="8.6" fill="#5A3A24" stroke="#17110D" stroke-width="2.1"/><circle cx="1469.3" cy="569" r="4.5" fill="#FFF6E4" stroke="#17110D" stroke-width="1.8"/><ellipse cx="1461.1" cy="571.1" rx="5.9" ry="8.6" fill="#5A3A24" stroke="#17110D" stroke-width="2.1"/><circle cx="1462.4" cy="561.9" r="4.5" fill="#6B4128" stroke="#17110D" stroke-width="1.8"/><ellipse cx="1489.8" cy="576" rx="5.9" ry="8.6" fill="#5A3A24" stroke="#17110D" stroke-width="2.1"/><circle cx="1491.1" cy="566.8" r="4.5" fill="#6B4128" stroke="#17110D" stroke-width="1.8"/><ellipse cx="1495.3" cy="570.2" rx="5.9" ry="8.6" fill="#5A3A24" stroke="#17110D" stroke-width="2.1"/><circle cx="1496.7" cy="561" r="4.5" fill="#6B4128" stroke="#17110D" stroke-width="1.8"/><ellipse cx="1501.7" cy="563.6" rx="5.9" ry="8.6" fill="#5A3A24" stroke="#17110D" stroke-width="2.1"/><circle cx="1503" cy="554.4" r="4.5" fill="#6B4128" stroke="#17110D" stroke-width="1.8"/><ellipse cx="1474.7" cy="561.1" rx="5.9" ry="8.6" fill="#5A3A24" stroke="#17110D" stroke-width="2.1"/><circle cx="1476" cy="551.9" r="4.5" fill="#6B4128" stroke="#17110D" stroke-width="1.8"/><ellipse cx="1467.8" cy="554.7" rx="5.9" ry="8.6" fill="#5A3A24" stroke="#17110D" stroke-width="2.1"/><circle cx="1469.1" cy="545.5" r="4.5" fill="#FFF6E4" stroke="#17110D" stroke-width="1.8"/><ellipse cx="1458.9" cy="546.3" rx="5.9" ry="8.6" fill="#5A3A24" stroke="#17110D" stroke-width="2.1"/><circle cx="1460.2" cy="537.1" r="4.5" fill="#6B4128" stroke="#17110D" stroke-width="1.8"/><ellipse cx="1492" cy="550.6" rx="5.9" ry="8.6" fill="#5A3A24" stroke="#17110D" stroke-width="2.1"/><circle cx="1493.4" cy="541.4" r="4.5" fill="#FFF6E4" stroke="#17110D" stroke-width="1.8"/><ellipse cx="1501.6" cy="543.6" rx="5.9" ry="8.6" fill="#5A3A24" stroke="#17110D" stroke-width="2.1"/><circle cx="1502.9" cy="534.4" r="4.5" fill="#6B4128" stroke="#17110D" stroke-width="1.8"/><ellipse cx="1513" cy="535.4" rx="5.9" ry="8.6" fill="#5A3A24" stroke="#17110D" stroke-width="2.1"/><circle cx="1514.3" cy="526.1" r="4.5" fill="#6B4128" stroke="#17110D" stroke-width="1.8"/><path d="M 1586.5 632.6 L 1586.6 570.6 M 1586.5 610.9 L 1571.5 589.9 M 1586.5 601 L 1608.1 583 M 1586.6 591.1 L 1571.9 567.2 M 1586.6 581.2 L 1612 567" fill="none" stroke="#17110D" stroke-width="14.163887453265488" stroke-linecap="round" stroke-linejoin="round"/><path d="M 1586.5 632.6 L 1586.6 570.6 M 1586.5 610.9 L 1571.5 589.9 M 1586.5 601 L 1608.1 583 M 1586.6 591.1 L 1571.9 567.2 M 1586.6 581.2 L 1612 567" fill="none" stroke="#4A3423" stroke-width="5.163887453265488" stroke-linecap="round" stroke-linejoin="round"/><ellipse cx="1582" cy="598.4" rx="4.6" ry="6.7" fill="#5A3A24" stroke="#17110D" stroke-width="1.7"/><circle cx="1583" cy="591.1" r="3.5" fill="#FFF6E4" stroke="#17110D" stroke-width="1.4"/><ellipse cx="1577.3" cy="591.9" rx="4.6" ry="6.7" fill="#5A3A24" stroke="#17110D" stroke-width="1.7"/><circle cx="1578.4" cy="584.7" r="3.5" fill="#6B4128" stroke="#17110D" stroke-width="1.4"/><ellipse cx="1573.1" cy="586" rx="4.6" ry="6.7" fill="#5A3A24" stroke="#17110D" stroke-width="1.7"/><circle cx="1574.2" cy="578.8" r="3.5" fill="#FFF6E4" stroke="#17110D" stroke-width="1.4"/><ellipse cx="1593.7" cy="588.9" rx="4.6" ry="6.7" fill="#5A3A24" stroke="#17110D" stroke-width="1.7"/><circle cx="1594.7" cy="581.6" r="3.5" fill="#6B4128" stroke="#17110D" stroke-width="1.4"/><ellipse cx="1598.7" cy="584.7" rx="4.6" ry="6.7" fill="#5A3A24" stroke="#17110D" stroke-width="1.7"/><circle cx="1599.7" cy="577.4" r="3.5" fill="#6B4128" stroke="#17110D" stroke-width="1.4"/><ellipse cx="1605" cy="579.4" rx="4.6" ry="6.7" fill="#5A3A24" stroke="#17110D" stroke-width="1.7"/><circle cx="1606" cy="572.2" r="3.5" fill="#FFF6E4" stroke="#17110D" stroke-width="1.4"/><ellipse cx="1582.8" cy="578.8" rx="4.6" ry="6.7" fill="#5A3A24" stroke="#17110D" stroke-width="1.7"/><circle cx="1583.8" cy="571.5" r="3.5" fill="#FFF6E4" stroke="#17110D" stroke-width="1.4"/><ellipse cx="1577.7" cy="570.5" rx="4.6" ry="6.7" fill="#5A3A24" stroke="#17110D" stroke-width="1.7"/><circle cx="1578.8" cy="563.3" r="3.5" fill="#6B4128" stroke="#17110D" stroke-width="1.4"/><ellipse cx="1573" cy="562.8" rx="4.6" ry="6.7" fill="#5A3A24" stroke="#17110D" stroke-width="1.7"/><circle cx="1574" cy="555.6" r="3.5" fill="#6B4128" stroke="#17110D" stroke-width="1.4"/><ellipse cx="1593.4" cy="571.2" rx="4.6" ry="6.7" fill="#5A3A24" stroke="#17110D" stroke-width="1.7"/><circle cx="1594.4" cy="563.9" r="3.5" fill="#6B4128" stroke="#17110D" stroke-width="1.4"/><ellipse cx="1602.2" cy="566.2" rx="4.6" ry="6.7" fill="#5A3A24" stroke="#17110D" stroke-width="1.7"/><circle cx="1603.2" cy="559" r="3.5" fill="#6B4128" stroke="#17110D" stroke-width="1.4"/><ellipse cx="1609.6" cy="562.1" rx="4.6" ry="6.7" fill="#5A3A24" stroke="#17110D" stroke-width="1.7"/><circle cx="1610.7" cy="554.9" r="3.5" fill="#FFF6E4" stroke="#17110D" stroke-width="1.4"/><path d="M -20 648 L 1620 648 L 1620 1010 L -20 1010 Z" fill="#16968E" stroke="#17110D" stroke-width="6" stroke-linejoin="round"/><path d="M 80 700 l 180 0 M 420 740 l 260 0 M 900 700 l 200 0 M 1250 760 l 240 0 M 200 820 l 220 0 M 760 860 l 300 0 M 1180 900 l 200 0" fill="none" stroke="#5CC8BA" stroke-width="7" stroke-linecap="round" stroke-linejoin="round"/><path d="M 1060 690 l 120 0 M 1110 720 l 80 0" fill="none" stroke="#FFE28A" stroke-width="7" stroke-linecap="round" stroke-linejoin="round"/></svg>
