<!-- EAGLES GON EAT — generated by tools/export-scenes.js -->
<svg xmlns="http://www.w3.org/2000/svg" viewBox="0 0 800 1000" width="800" height="1000" overflow="visible" aria-hidden="true"><path d="M 190 1010 C 210 860 160 720 196 610 C 214 540 130 480 70 440 C 36 418 12 390 18 356 C 140 332 380 326 560 336 C 640 342 694 392 704 470 C 722 640 744 820 796 1010 Z" fill="#3C4553" stroke="#17110D" stroke-width="7" stroke-linejoin="round"/><path d="M 196 610 C 214 540 130 480 70 440 C 120 470 190 520 240 600 C 260 700 250 860 270 1010 L 190 1010 C 210 860 160 720 196 610 Z" fill="#313946"/><path d="M 560 336 C 640 342 694 392 704 470 C 722 640 744 820 796 1010 L 700 1010 C 680 820 660 620 640 480 C 630 400 600 360 560 336 Z" fill="#313946"/><path d="M 300 460 l 30 60 l -18 40 M 480 520 l -20 70 l 26 50 M 360 720 l 40 60 l -10 60 M 560 640 l -30 80" fill="none" stroke="#17110D" stroke-width="4" stroke-linecap="round" stroke-linejoin="round"/><path d="M 30 352 C 150 332 380 326 556 338" fill="none" stroke="#FFD27A" stroke-width="7" stroke-linecap="round" stroke-linejoin="round"/><path d="M 120 344 q -6 -22 -16 -30 M 120 344 q 2 -26 10 -36 M 120 344 q 12 -16 24 -20" fill="none" stroke="#17110D" stroke-width="9" stroke-linecap="round" stroke-linejoin="round"/><path d="M 120 344 q -6 -22 -16 -30 M 120 344 q 2 -26 10 -36 M 120 344 q 12 -16 24 -20" fill="none" stroke="#C9A86A" stroke-width="4" stroke-linecap="round" stroke-linejoin="round"/><path d="M 470 338 q -6 -22 -16 -30 M 470 338 q 2 -26 10 -36 M 470 338 q 12 -16 24 -20" fill="none" stroke="#17110D" stroke-width="9" stroke-linecap="round" stroke-linejoin="round"/><path d="M 470 338 q -6 -22 -16 -30 M 470 338 q 2 -26 10 -36 M 470 338 q 12 -16 24 -20" fill="none" stroke="#C9A86A" stroke-width="4" stroke-linecap="round" stroke-linejoin="round"/><path d="M 540 340 q -6 -22 -16 -30 M 540 340 q 2 -26 10 -36 M 540 340 q 12 -16 24 -20" fill="none" stroke="#17110D" stroke-width="9" stroke-linecap="round" stroke-linejoin="round"/><path d="M 540 340 q -6 -22 -16 -30 M 540 340 q 2 -26 10 -36 M 540 340 q 12 -16 24 -20" fill="none" stroke="#C9A86A" stroke-width="4" stroke-linecap="round" stroke-linejoin="round"/><path d="M 190 1010 C 210 860 160 720 196 610 C 214 540 130 480 70 440 C 36 418 12 390 18 356 C 140 332 380 326 560 336 C 640 342 694 392 704 470 C 722 640 744 820 796 1010 Z" fill="none" stroke="#17110D" stroke-width="7" stroke-linejoin="round"/></svg>
